# xmcd CD database file
#
# Track frame offsets:
#	150
#	20902
#	37772
#	54360
#	66232
#	82092
#	97892
#	112547
#	131795
#	149132
#	167392
#	181210
#	200730
#
# Disc length: 2994 seconds
#
# Revision: 2
# Processed by: cddbd v1.4PL0 Copyright (c) Steve Scherf et al.
# Submitted via: CDex 1.51
#
DISCID=b00bb00d
DTITLE=The Cruel Sea - Over Easy
DYEAR=1998
DGENRE=Rock
TTITLE0=The Charmer
TTITLE1=Runnin'
TTITLE2=Hard Times
TTITLE3=13th Floor
TTITLE4=Takin' All Day
TTITLE5=You'll Do
TTITLE6=Welcome
TTITLE7=Only Falling Water
TTITLE8=Unending Thing
TTITLE9=Down On Me
TTITLE10=Daytona
TTITLE11=Seaman's Lament
TTITLE12=This Time Of Year
EXTD=YEAR: 1998
EXTT0=
EXTT1=
EXTT2=
EXTT3=
EXTT4=
EXTT5=
EXTT6=
EXTT7=
EXTT8=
EXTT9=
EXTT10=
EXTT11=
EXTT12=
PLAYORDER=
